<?xml version="1.0" encoding="utf-8"?>
<svg width="500" zoomAndPan="magnify" viewBox="147.414 84.052 243.75 131.25" height="500" preserveAspectRatio="xMidYMid meet" version="1.0" xmlns="http://www.w3.org/2000/svg">
  <defs>
    <g/>
    <clipPath id="0189a6189d">
      <path d="M 173.917969 134.847656 L 182.933594 134.847656 L 182.933594 154.519531 L 173.917969 154.519531 Z M 173.917969 134.847656 " clip-rule="nonzero"/>
    </clipPath>
    <clipPath id="50f6ffea55">
      <path d="M 196.03125 136.347656 L 201.082031 136.347656 L 201.082031 156.019531 L 196.03125 156.019531 Z M 196.03125 136.347656 " clip-rule="nonzero"/>
    </clipPath>
    <clipPath id="f7e50d9de2">
      <path d="M 186.683594 125.035156 L 192.28125 125.035156 L 192.28125 140.816406 L 186.683594 140.816406 Z M 186.683594 125.035156 " clip-rule="nonzero"/>
    </clipPath>
    <clipPath id="fd9f5a805f">
      <path d="M 186.683594 152.269531 L 192.28125 152.269531 L 192.28125 168.050781 L 186.683594 168.050781 Z M 186.683594 152.269531 " clip-rule="nonzero"/>
    </clipPath>
  </defs>
  <g clip-path="url(#0189a6189d)">
    <path d="M 173.917969 134.847656 L 182.707031 134.847656 L 182.707031 154.769531 L 173.917969 154.769531 Z M 173.917969 134.847656 " fill-opacity="1" fill-rule="nonzero" style="fill: rgb(255, 255, 255);"/>
  </g>
  <g clip-path="url(#50f6ffea55)">
    <path d="M 196.03125 136.347656 L 201.304688 136.347656 L 201.304688 156.269531 L 196.03125 156.269531 Z M 196.03125 136.347656 " fill-opacity="1" fill-rule="nonzero" style="fill: rgb(255, 255, 255);"/>
  </g>
  <g clip-path="url(#f7e50d9de2)">
    <path d="M 186.683594 125.035156 L 192.542969 125.035156 L 192.542969 140.855469 L 186.683594 140.855469 Z M 186.683594 125.035156 " fill-opacity="1" fill-rule="nonzero" style="fill: rgb(255, 255, 255);"/>
  </g>
  <g clip-path="url(#fd9f5a805f)">
    <path d="M 186.683594 152.269531 L 192.542969 152.269531 L 192.542969 168.089844 L 186.683594 168.089844 Z M 186.683594 152.269531 " fill-opacity="1" fill-rule="nonzero" style="fill: rgb(255, 255, 255);"/>
  </g>
  <g fill="#004aad" fill-opacity="1">
    <g transform="translate(204.176944, 161.166882)">
      <g>
        <path d="M 0.59375 0 L 10.59375 -30.234375 L 18.609375 -30.234375 L 28.640625 0 L 22.328125 0 L 20.328125 -6.140625 L 8.671875 -6.140625 L 6.703125 0 Z M 10.421875 -11.53125 L 18.578125 -11.53125 L 14.515625 -24.03125 Z M 10.421875 -11.53125 "/>
      </g>
    </g>
  </g>
  <g fill="#004aad" fill-opacity="1">
    <g transform="translate(233.386076, 161.166882)">
      <g>
        <path d="M 15.84375 0 C 14.320312 0.445312 12.726562 0.671875 11.0625 0.671875 C 8.40625 0.671875 6.492188 0.078125 5.328125 -1.109375 C 4.160156 -2.304688 3.578125 -4.242188 3.578125 -6.921875 L 3.578125 -18.4375 L 0.671875 -18.4375 L 0.671875 -22.921875 L 3.578125 -22.921875 L 3.578125 -29.296875 L 9.21875 -29.296875 L 9.21875 -22.921875 L 14.546875 -22.921875 L 14.546875 -18.4375 L 9.21875 -18.4375 L 9.21875 -7.640625 C 9.21875 -6.210938 9.4375 -5.242188 9.875 -4.734375 C 10.320312 -4.234375 10.957031 -3.984375 11.78125 -3.984375 C 12.8125 -3.984375 13.835938 -4.191406 14.859375 -4.609375 Z M 15.84375 0 "/>
      </g>
    </g>
  </g>
  <g fill="#004aad" fill-opacity="1">
    <g transform="translate(249.530839, 161.166882)">
      <g>
        <path d="M 7.828125 -9.984375 C 7.921875 -7.941406 8.410156 -6.476562 9.296875 -5.59375 C 10.191406 -4.707031 11.59375 -4.265625 13.5 -4.265625 C 14.613281 -4.265625 15.585938 -4.398438 16.421875 -4.671875 C 17.253906 -4.953125 17.984375 -5.484375 18.609375 -6.265625 L 22.8125 -3.28125 C 21.894531 -1.957031 20.703125 -0.96875 19.234375 -0.3125 C 17.773438 0.34375 15.773438 0.671875 13.234375 0.671875 C 9.460938 0.671875 6.648438 -0.316406 4.796875 -2.296875 C 2.941406 -4.273438 2.015625 -7.269531 2.015625 -11.28125 C 2.015625 -19.476562 5.679688 -23.578125 13.015625 -23.578125 C 16.285156 -23.578125 18.773438 -22.65625 20.484375 -20.8125 C 22.191406 -18.96875 23.046875 -16.285156 23.046875 -12.765625 L 23.046875 -9.984375 Z M 17.453125 -13.875 C 17.453125 -17.351562 15.929688 -19.09375 12.890625 -19.09375 C 11.890625 -19.09375 11.066406 -18.921875 10.421875 -18.578125 C 9.785156 -18.242188 9.269531 -17.734375 8.875 -17.046875 C 8.488281 -16.367188 8.1875 -15.3125 7.96875 -13.875 Z M 17.453125 -13.875 "/>
      </g>
    </g>
  </g>
  <g fill="#004aad" fill-opacity="1">
    <g transform="translate(274.501696, 161.166882)">
      <g>
        <path d="M 17.765625 0 L 17.765625 -2.953125 C 16.773438 -1.890625 15.5625 -1.019531 14.125 -0.34375 C 12.6875 0.332031 11.304688 0.671875 9.984375 0.671875 C 7.390625 0.671875 5.578125 -0.0390625 4.546875 -1.46875 C 3.515625 -2.90625 3 -4.953125 3 -7.609375 L 3 -22.921875 L 8.625 -22.921875 L 8.625 -10.296875 C 8.625 -8.671875 8.71875 -7.425781 8.90625 -6.5625 C 9.101562 -5.707031 9.414062 -5.113281 9.84375 -4.78125 C 10.269531 -4.457031 10.898438 -4.296875 11.734375 -4.296875 C 13.410156 -4.296875 15.421875 -5.398438 17.765625 -7.609375 L 17.765625 -22.921875 L 23.40625 -22.921875 L 23.40625 0 Z M 17.765625 0 "/>
      </g>
    </g>
  </g>
  <g fill="#004aad" fill-opacity="1">
    <g transform="translate(301.089215, 161.166882)">
      <g>
        <path d="M 1.25 0 L 1.25 -4.109375 L 11.953125 -18.4375 L 1.53125 -18.4375 L 1.53125 -22.921875 L 18.703125 -22.921875 L 18.703125 -18.828125 L 7.96875 -4.484375 L 19.046875 -4.484375 L 19.046875 0 Z M 1.25 0 "/>
      </g>
    </g>
  </g>
  <g fill="#004aad" fill-opacity="1">
    <g transform="translate(321.40671, 161.166882)">
      <g>
        <path d="M 23.984375 -11.40625 C 23.984375 -7.59375 23.101562 -4.625 21.34375 -2.5 C 19.582031 -0.382812 16.804688 0.671875 13.015625 0.671875 C 5.679688 0.671875 2.015625 -3.351562 2.015625 -11.40625 C 2.015625 -15.28125 2.894531 -18.273438 4.65625 -20.390625 C 6.414062 -22.515625 9.203125 -23.578125 13.015625 -23.578125 C 16.804688 -23.578125 19.582031 -22.515625 21.34375 -20.390625 C 23.101562 -18.273438 23.984375 -15.28125 23.984375 -11.40625 Z M 18.15625 -11.40625 C 18.15625 -13.925781 17.757812 -15.765625 16.96875 -16.921875 C 16.1875 -18.078125 14.867188 -18.65625 13.015625 -18.65625 C 11.179688 -18.65625 9.859375 -18.0625 9.046875 -16.875 C 8.234375 -15.6875 7.828125 -13.863281 7.828125 -11.40625 C 7.828125 -8.957031 8.226562 -7.15625 9.03125 -6 C 9.84375 -4.84375 11.171875 -4.265625 13.015625 -4.265625 C 14.835938 -4.265625 16.148438 -4.832031 16.953125 -5.96875 C 17.753906 -7.113281 18.15625 -8.925781 18.15625 -11.40625 Z M 18.15625 -11.40625 "/>
      </g>
    </g>
  </g>
  <g fill="#545454" fill-opacity="1">
    <g transform="translate(266.94441, 184.450226)">
      <g>
        <path d="M 9.015625 -10.015625 L 16.09375 -10.015625 L 16.09375 -0.765625 C 14.945312 -0.390625 13.867188 -0.128906 12.859375 0.015625 C 11.847656 0.171875 10.8125 0.25 9.75 0.25 C 7.0625 0.25 5.003906 -0.539062 3.578125 -2.125 C 2.160156 -3.707031 1.453125 -5.984375 1.453125 -8.953125 C 1.453125 -11.828125 2.273438 -14.070312 3.921875 -15.6875 C 5.566406 -17.300781 7.851562 -18.109375 10.78125 -18.109375 C 12.613281 -18.109375 14.378906 -17.738281 16.078125 -17 L 14.8125 -13.984375 C 13.507812 -14.628906 12.15625 -14.953125 10.75 -14.953125 C 9.113281 -14.953125 7.800781 -14.398438 6.8125 -13.296875 C 5.832031 -12.203125 5.34375 -10.726562 5.34375 -8.875 C 5.34375 -6.9375 5.738281 -5.457031 6.53125 -4.4375 C 7.332031 -3.414062 8.488281 -2.90625 10 -2.90625 C 10.789062 -2.90625 11.59375 -2.988281 12.40625 -3.15625 L 12.40625 -6.875 L 9.015625 -6.875 Z M 9.015625 -10.015625 " style="fill: rgb(255, 255, 255);"/>
      </g>
    </g>
  </g>
  <g fill="#545454" fill-opacity="1">
    <g transform="translate(285.044614, 184.450226)">
      <g>
        <path d="M 9.578125 -13.90625 C 10.078125 -13.90625 10.492188 -13.867188 10.828125 -13.796875 L 10.546875 -10.296875 C 10.242188 -10.378906 9.878906 -10.421875 9.453125 -10.421875 C 8.265625 -10.421875 7.335938 -10.113281 6.671875 -9.5 C 6.003906 -8.894531 5.671875 -8.046875 5.671875 -6.953125 L 5.671875 0 L 1.953125 0 L 1.953125 -13.640625 L 4.765625 -13.640625 L 5.328125 -11.359375 L 5.5 -11.359375 C 5.925781 -12.117188 6.5 -12.734375 7.21875 -13.203125 C 7.9375 -13.671875 8.722656 -13.90625 9.578125 -13.90625 Z M 9.578125 -13.90625 " style="fill: rgb(255, 255, 255);"/>
      </g>
    </g>
  </g>
  <g fill="#545454" fill-opacity="1">
    <g transform="translate(296.395378, 184.450226)">
      <g>
        <path d="M 4.921875 -6.84375 C 4.921875 -5.5 5.140625 -4.476562 5.578125 -3.78125 C 6.023438 -3.09375 6.75 -2.75 7.75 -2.75 C 8.738281 -2.75 9.453125 -3.09375 9.890625 -3.78125 C 10.328125 -4.46875 10.546875 -5.488281 10.546875 -6.84375 C 10.546875 -8.195312 10.328125 -9.210938 9.890625 -9.890625 C 9.453125 -10.566406 8.734375 -10.90625 7.734375 -10.90625 C 6.734375 -10.90625 6.015625 -10.566406 5.578125 -9.890625 C 5.140625 -9.222656 4.921875 -8.207031 4.921875 -6.84375 Z M 14.359375 -6.84375 C 14.359375 -4.625 13.769531 -2.882812 12.59375 -1.625 C 11.425781 -0.375 9.796875 0.25 7.703125 0.25 C 6.390625 0.25 5.234375 -0.0351562 4.234375 -0.609375 C 3.234375 -1.191406 2.460938 -2.019531 1.921875 -3.09375 C 1.390625 -4.164062 1.125 -5.414062 1.125 -6.84375 C 1.125 -9.070312 1.703125 -10.804688 2.859375 -12.046875 C 4.023438 -13.285156 5.664062 -13.90625 7.78125 -13.90625 C 9.082031 -13.90625 10.234375 -13.617188 11.234375 -13.046875 C 12.242188 -12.472656 13.015625 -11.65625 13.546875 -10.59375 C 14.085938 -9.53125 14.359375 -8.28125 14.359375 -6.84375 Z M 14.359375 -6.84375 " style="fill: rgb(255, 255, 255);"/>
      </g>
    </g>
  </g>
  <g fill="#545454" fill-opacity="1">
    <g transform="translate(311.871474, 184.450226)">
      <g>
        <path d="M 11.625 0 L 11.125 -1.75 L 10.921875 -1.75 C 10.523438 -1.113281 9.957031 -0.617188 9.21875 -0.265625 C 8.488281 0.078125 7.65625 0.25 6.71875 0.25 C 5.125 0.25 3.914062 -0.175781 3.09375 -1.03125 C 2.28125 -1.894531 1.875 -3.132812 1.875 -4.75 L 1.875 -13.640625 L 5.609375 -13.640625 L 5.609375 -5.671875 C 5.609375 -4.691406 5.78125 -3.953125 6.125 -3.453125 C 6.476562 -2.960938 7.035156 -2.71875 7.796875 -2.71875 C 8.835938 -2.71875 9.585938 -3.066406 10.046875 -3.765625 C 10.515625 -4.460938 10.75 -5.617188 10.75 -7.234375 L 10.75 -13.640625 L 14.484375 -13.640625 L 14.484375 0 Z M 11.625 0 " style="fill: rgb(255, 255, 255);"/>
      </g>
    </g>
  </g>
  <g fill="#545454" fill-opacity="1">
    <g transform="translate(328.29957, 184.450226)">
      <g>
        <path d="M 9.453125 0.25 C 7.847656 0.25 6.585938 -0.332031 5.671875 -1.5 L 5.484375 -1.5 C 5.609375 -0.363281 5.671875 0.289062 5.671875 0.46875 L 5.671875 6 L 1.953125 6 L 1.953125 -13.640625 L 4.984375 -13.640625 L 5.5 -11.875 L 5.671875 -11.875 C 6.546875 -13.226562 7.835938 -13.90625 9.546875 -13.90625 C 11.160156 -13.90625 12.421875 -13.28125 13.328125 -12.03125 C 14.242188 -10.789062 14.703125 -9.0625 14.703125 -6.84375 C 14.703125 -5.382812 14.488281 -4.117188 14.0625 -3.046875 C 13.632812 -1.972656 13.023438 -1.15625 12.234375 -0.59375 C 11.441406 -0.03125 10.515625 0.25 9.453125 0.25 Z M 8.34375 -10.921875 C 7.425781 -10.921875 6.753906 -10.640625 6.328125 -10.078125 C 5.910156 -9.515625 5.691406 -8.582031 5.671875 -7.28125 L 5.671875 -6.875 C 5.671875 -5.40625 5.890625 -4.351562 6.328125 -3.71875 C 6.765625 -3.082031 7.457031 -2.765625 8.40625 -2.765625 C 10.070312 -2.765625 10.90625 -4.140625 10.90625 -6.890625 C 10.90625 -8.234375 10.695312 -9.238281 10.28125 -9.90625 C 9.875 -10.582031 9.226562 -10.921875 8.34375 -10.921875 Z M 8.34375 -10.921875 " style="fill: rgb(255, 255, 255);"/>
      </g>
    </g>
  </g>
</svg>